# xmcd
#
# Track frame offsets:
#	150
#	12944
#	27761
#	44817
#	56699
#	73888
#	87984
#	101553
#	113727
#	128476
#	143988
#	159504
#
# Disc length: 2316 seconds
#
# Revision: 0
# Processed by: cddbd v1.4PL0 Copyright (c) Steve Scherf et al.
# Submitted via: EasyCDDAExtractor 4.6.0.1
#
DISCID=a3090a0c
DTITLE=Chicos De Barrio - Te Invito A Bailar
DYEAR=1900
DGENRE=
TTITLE0=Yo Te Invito A Bailar
TTITLE1=Sola Y Trizte
TTITLE2=Rosa
TTITLE3=Cuando Me Tocas Asi
TTITLE4=Cumbia Del Indio
TTITLE5=Quiero Todo Tu Amor
TTITLE6=Estube Enamorada De Ti
TTITLE7=Tu Concentida
TTITLE8=Cumbia Hip Hop
TTITLE9=Los Amantes
TTITLE10=Como Te Extraño
TTITLE11=Seca Tu Llanto
EXTD=
EXTT0=
EXTT1=
EXTT2=
EXTT3=
EXTT4=
EXTT5=
EXTT6=
EXTT7=
EXTT8=
EXTT9=
EXTT10=
EXTT11=
PLAYORDER=
